<svg width="32" height="32" fill="none" xmlns="http://www.w3.org/2000/svg"><g clip-path="url('#clip0_135_72')" filter="url('#filter0_d_135_72')"><path d="M4 22.667C4 23.403 4.597 24 5.333 24h21.334a1.333 1.333 0 0 0 0-2.667H5.333c-.736 0-1.333.597-1.333 1.334ZM4 16c0 .736.597 1.333 1.333 1.333h21.334a1.333 1.333 0 0 0 0-2.666H5.333C4.597 14.667 4 15.264 4 16Zm1.333-8a1.333 1.333 0 1 0 0 2.667h21.334a1.333 1.333 0 0 0 0-2.667H5.333Z" fill="#000"/></g><defs><clipPath id="clip0_135_72"><path fill="#fff" d="M0 0h32v32H0z"/></clipPath><filter id="filter0_d_135_72" x="-4" y="0" width="40" height="40" filterUnits="userSpaceOnUse" color-interpolation-filters="sRGB"><feFlood flood-opacity="0" result="BackgroundImageFix"/><feColorMatrix in="SourceAlpha" values="0 0 0 0 0 0 0 0 0 0 0 0 0 0 0 0 0 0 127 0" result="hardAlpha"/><feOffset/><feGaussianBlur/><feComposite in2="hardAlpha" operator="out"/><feColorMatrix values="0 0 0 0 0 0 0 0 0 0 0 0 0 0 0 0 0 0 0.25 0"/><feBlend in2="BackgroundImageFix" result="effect1_dropShadow_135_72"/><feBlend in="SourceGraphic" in2="effect1_dropShadow_135_72" result="shape"/></filter></defs></svg>